<?xml version="1.0" standalone="no"?>
<!DOCTYPE svg PUBLIC "-//W3C//DTD SVG 20010904//EN"
 "http://www.w3.org/TR/2001/REC-SVG-20010904/DTD/svg10.dtd">
<svg version="1.0" xmlns="http://www.w3.org/2000/svg"
 width="297.000000pt" height="117.000000pt" viewBox="0 0 297.000000 117.000000"
 preserveAspectRatio="xMidYMid meet">

<g transform="translate(0.000000,117.000000) scale(0.100000,-0.100000)"
fill="#000000" stroke="none">
<path d="M2415 1026 c-33 -33 -39 -66 -21 -111 23 -54 20 -63 -18 -70 -19 -4
-44 -16 -56 -27 -18 -17 -21 -28 -16 -64 3 -24 9 -65 12 -90 5 -35 12 -48 30
-56 24 -11 24 -14 24 -145 l0 -134 -30 -11 c-34 -11 -50 -35 -50 -72 l0 -26
165 0 c141 0 167 2 172 16 9 24 -13 61 -47 79 l-30 16 0 135 c0 133 0 135 24
144 21 8 25 19 36 92 15 100 8 121 -47 138 -54 18 -58 24 -38 65 22 47 13 97
-22 125 -34 26 -59 25 -88 -4z m85 -25 c23 -45 1 -111 -38 -111 -45 0 -69 75
-35 112 21 24 60 23 73 -1z m-11 -149 c5 -10 28 -24 49 -30 59 -18 63 -27 51
-108 -12 -77 -21 -93 -43 -75 -25 21 -31 70 -9 86 17 13 17 14 0 20 -44 17
-55 -39 -21 -107 10 -19 14 -71 14 -175 l1 -148 31 -20 c63 -40 51 -45 -107
-45 -160 0 -172 6 -100 47 l38 21 -2 145 c-2 130 0 148 18 178 25 41 28 94 5
103 -25 10 -34 7 -34 -9 0 -8 7 -15 16 -15 11 0 14 -6 9 -22 -26 -93 -56 -89
-71 9 -6 39 -7 78 -2 87 4 8 31 22 58 31 29 10 50 23 50 31 0 20 38 17 49 -4z"/>
<path d="M288 963 c8 -3 12 -32 12 -93 0 -61 -4 -90 -12 -93 -7 -3 3 -5 22 -5
19 0 29 2 23 5 -9 3 -13 28 -12 76 l0 72 37 -79 36 -80 38 80 37 79 0 -72 c1
-48 -3 -73 -11 -76 -7 -3 7 -6 32 -6 35 0 41 2 28 10 -15 8 -18 24 -18 89 0
65 3 81 18 89 14 9 12 10 -13 11 -29 0 -33 -5 -66 -77 l-36 -78 -36 78 c-33
70 -38 77 -64 76 -15 0 -22 -3 -15 -6z"/>
<path d="M548 898 c7 -7 12 -36 12 -64 0 -44 3 -54 21 -59 13 -4 27 0 40 11
18 16 19 16 19 0 0 -14 3 -15 22 -5 14 8 18 14 10 17 -7 2 -12 23 -12 58 0 49
-2 54 -22 54 -17 0 -19 -3 -10 -12 17 -17 15 -83 -3 -98 -29 -24 -45 -4 -45
55 0 50 -2 55 -22 55 -17 0 -19 -3 -10 -12z"/>
<path d="M712 898 c-21 -21 -13 -46 23 -67 38 -22 44 -38 18 -48 -10 -4 -23 2
-35 16 l-18 23 0 -23 c0 -20 6 -24 34 -26 62 -5 76 47 21 77 -36 20 -46 50
-16 50 11 0 25 -8 30 -17 9 -16 10 -16 11 -2 0 27 -46 39 -68 17z"/>
<path d="M878 900 c32 -13 27 -30 -9 -30 -25 0 -30 3 -25 16 5 14 4 15 -9 4
-8 -7 -15 -29 -15 -50 0 -67 64 -94 99 -41 15 23 15 24 -6 11 -28 -18 -73 0
-73 30 0 17 7 20 45 20 25 0 45 4 45 9 0 17 -31 41 -53 40 l-22 0 23 -9z"/>
<path d="M948 898 c7 -7 12 -36 12 -64 0 -44 3 -54 21 -59 13 -4 27 0 40 11
18 16 19 16 19 0 0 -14 3 -15 22 -5 14 8 18 14 10 17 -7 2 -12 23 -12 58 0 49
-2 54 -22 54 -17 0 -19 -3 -10 -12 17 -17 15 -83 -3 -98 -29 -24 -45 -4 -45
55 0 50 -2 55 -22 55 -17 0 -19 -3 -10 -12z"/>
<path d="M1104 895 c-11 -8 -14 -15 -6 -15 16 0 16 -82 0 -98 -9 -9 -4 -12 26
-12 34 0 36 1 22 16 -34 33 -10 115 29 100 19 -7 21 -102 3 -109 -7 -3 5 -6
27 -6 25 0 35 2 27 8 -9 5 -12 25 -10 57 3 41 6 49 23 49 17 0 20 -8 23 -49 2
-32 -1 -52 -10 -57 -8 -6 2 -8 27 -8 22 0 34 3 28 6 -8 3 -13 24 -13 57 0 29
-5 57 -12 64 -17 17 -43 15 -59 -4 -11 -14 -13 -14 -21 0 -11 19 -39 21 -56 4
-10 -10 -14 -10 -21 0 -5 9 -11 9 -27 -3z"/>
<path d="M730 710 c-10 -6 -11 -10 -2 -10 16 0 17 -151 0 -168 -9 -9 -4 -12
22 -12 26 0 31 3 22 12 -8 8 -12 45 -12 100 0 89 -3 96 -30 78z"/>
<path d="M870 710 c-10 -6 -11 -10 -2 -10 7 0 12 -12 12 -29 0 -24 -3 -28 -23
-24 -34 7 -59 -27 -55 -73 4 -45 28 -65 58 -46 11 7 20 9 20 4 0 -4 23 -9 52
-10 41 -2 50 0 40 10 -27 27 -9 98 26 98 11 0 13 -13 10 -55 -3 -50 -1 -55 18
-55 20 0 21 3 12 58 -11 68 -21 81 -48 64 -29 -18 -30 -16 -30 32 0 41 -2 44
-22 38 -12 -3 -17 -7 -10 -10 8 -2 12 -31 12 -89 0 -74 -2 -84 -16 -79 -9 3
-18 6 -20 6 -2 0 -4 41 -4 90 0 91 -3 98 -30 80z m4 -86 c11 -29 6 -75 -9 -80
-22 -9 -45 14 -45 45 0 44 41 70 54 35z"/>
<path d="M1545 709 c-11 -4 -14 -8 -7 -8 8 -1 12 -25 12 -85 0 -58 -4 -86 -12
-89 -7 -3 3 -6 22 -6 26 -1 31 2 22 11 -7 7 -12 21 -12 32 0 18 1 18 25 -4 13
-12 22 -27 19 -31 -3 -5 7 -9 22 -9 l28 0 -32 33 c-40 41 -40 52 1 77 l32 20
-29 0 c-16 0 -26 -3 -23 -7 8 -7 -21 -43 -34 -43 -4 0 -9 26 -11 59 -3 54 -5
57 -23 50z"/>
<path d="M293 703 c14 -4 17 -17 17 -88 0 -71 -3 -84 -17 -88 -10 -3 10 -5 45
-6 35 0 72 4 83 9 23 13 26 68 4 76 -13 5 -13 8 0 27 19 28 19 33 -5 57 -16
16 -32 20 -82 19 -35 -1 -55 -3 -45 -6z m111 -25 c15 -25 -3 -52 -38 -56 -24
-3 -26 -1 -26 38 0 39 2 41 26 38 15 -2 32 -11 38 -20z m6 -87 c13 -25 13 -27
-6 -45 -8 -9 -26 -16 -40 -16 -21 0 -24 4 -24 40 0 38 2 40 30 40 19 0 33 -7
40 -19z"/>
<path d="M2068 658 c-10 -10 -13 -18 -8 -18 6 0 10 -24 10 -54 0 -57 9 -72 38
-61 16 6 16 7 0 16 -13 7 -18 22 -18 54 0 33 4 45 18 48 15 4 15 5 0 6 -9 0
-18 7 -20 14 -2 9 -8 8 -20 -5z"/>
<path d="M496 637 c-25 -18 -25 -86 0 -104 23 -17 49 -17 63 1 9 11 7 12 -13
9 -17 -4 -28 2 -40 18 -23 34 -20 39 24 39 41 0 52 14 28 38 -16 16 -40 15
-62 -1z m52 -14 c2 -9 -7 -13 -28 -13 -28 0 -31 2 -20 15 15 18 41 16 48 -2z"/>
<path d="M616 637 c-25 -18 -25 -86 0 -104 23 -17 49 -17 63 1 9 11 7 12 -13
9 -17 -4 -28 2 -40 18 -23 34 -20 39 24 39 41 0 52 14 28 38 -16 16 -40 15
-62 -1z m52 -14 c2 -9 -7 -13 -28 -13 -28 0 -31 2 -20 15 15 18 41 16 48 -2z"/>
<path d="M1090 630 c-37 -37 -14 -110 34 -110 50 0 76 79 38 113 -25 22 -48
21 -72 -3z m58 -2 c19 -19 15 -87 -5 -95 -20 -8 -53 30 -53 61 0 24 17 46 35
46 6 0 16 -5 23 -12z"/>
<path d="M1208 638 c7 -7 12 -34 12 -60 0 -53 18 -71 46 -47 13 10 17 10 24 0
6 -10 12 -11 26 -2 11 6 13 11 7 11 -9 0 -13 18 -13 55 0 51 -2 55 -22 54 -13
0 -17 -3 -10 -6 19 -7 16 -89 -4 -97 -30 -12 -34 -6 -34 49 0 50 -2 55 -22 55
-17 0 -19 -3 -10 -12z"/>
<path d="M1344 628 c8 -13 20 -42 27 -65 7 -24 16 -43 21 -43 4 0 8 2 8 4 0 2
3 12 7 22 4 11 2 15 -4 11 -12 -7 -37 68 -28 83 3 6 -5 10 -20 10 -24 0 -25
-1 -11 -22z"/>
<path d="M1414 634 c12 -12 14 -20 5 -36 -6 -11 -8 -22 -5 -26 3 -3 6 0 6 6 0
24 19 11 25 -18 10 -48 22 -44 40 12 10 29 22 59 28 66 7 9 3 12 -14 11 -13 0
-19 -3 -13 -5 13 -5 -3 -74 -17 -74 -7 0 -24 59 -21 73 1 4 -10 7 -24 7 -23 0
-24 -1 -10 -16z"/>
<path d="M1678 638 c7 -7 12 -34 12 -60 0 -53 18 -71 46 -47 13 10 17 10 24 0
6 -10 12 -11 26 -2 11 6 13 11 7 11 -9 0 -13 18 -13 55 0 51 -2 55 -22 54 -13
0 -17 -3 -10 -6 19 -7 16 -89 -4 -97 -30 -12 -34 -6 -34 49 0 50 -2 55 -22 55
-17 0 -19 -3 -10 -12z"/>
<path d="M1821 641 c-9 -6 -10 -11 -2 -15 15 -10 14 -79 -1 -94 -9 -9 -4 -12
23 -12 22 0 29 3 21 9 -9 5 -12 24 -10 52 2 36 7 44 23 44 16 0 21 -8 23 -38
2 -21 -2 -45 -9 -53 -9 -12 -6 -14 22 -14 26 0 30 3 21 12 -7 7 -12 29 -12 49
0 21 -3 44 -6 53 -7 19 -35 21 -52 4 -9 -9 -12 -9 -12 0 0 14 -10 15 -29 3z"/>
<path d="M1962 638 c-19 -19 -14 -36 16 -55 32 -21 43 -34 36 -45 -8 -13 -31
-9 -48 8 -15 14 -16 14 -16 -3 0 -14 7 -18 28 -17 49 2 52 4 52 29 0 17 -9 29
-30 40 -34 18 -38 30 -12 44 14 9 14 10 2 11 -9 0 -21 -5 -28 -12z"/>
<path d="M2016 642 c-2 -4 -1 -14 5 -22 7 -12 9 -10 9 8 0 23 -5 28 -14 14z"/>
<path d="M360 447 c-32 -16 -70 -73 -70 -106 0 -72 79 -125 158 -105 35 9 37
11 43 57 3 27 12 53 20 58 9 6 -2 8 -36 8 -27 -1 -42 -3 -32 -6 26 -7 21 -106
-6 -111 -86 -17 -142 105 -81 177 33 39 74 41 109 6 l25 -24 0 27 c0 26 -3 27
-53 29 -28 2 -63 -3 -77 -10z"/>
<path d="M876 401 c-11 -12 -14 -21 -8 -21 8 0 12 -24 12 -69 0 -39 5 -73 10
-76 13 -8 50 4 50 16 0 6 -5 7 -11 3 -18 -11 -29 17 -29 73 0 46 3 52 23 56
22 4 22 4 0 6 -12 0 -23 8 -25 17 -3 14 -6 13 -22 -5z"/>
<path d="M571 373 c-12 -10 -24 -35 -27 -55 -5 -30 -2 -41 19 -62 15 -14 35
-26 47 -26 22 0 60 33 60 53 0 6 -5 4 -11 -5 -21 -36 -89 -9 -89 35 0 14 10
17 50 17 54 0 65 14 32 43 -24 22 -54 21 -81 0z m59 -13 c10 -18 8 -20 -25
-20 -37 0 -43 8 -23 28 18 18 36 15 48 -8z"/>
<path d="M700 377 c-20 -8 -22 -11 -7 -14 13 -4 17 -15 17 -57 0 -28 -5 -57
-12 -64 -9 -9 -4 -12 26 -12 34 0 36 1 22 16 -10 9 -16 33 -16 60 0 38 4 46
26 56 21 10 27 9 35 -3 13 -21 11 -103 -3 -117 -9 -9 -3 -12 27 -12 28 0 36 3
26 9 -9 6 -16 35 -20 77 -7 76 -21 89 -66 60 -19 -13 -24 -13 -27 -2 -2 10 -9
11 -28 3z"/>
<path d="M2280 180 c0 -6 65 -10 175 -10 110 0 175 4 175 10 0 6 -65 10 -175
10 -110 0 -175 -4 -175 -10z"/>
<path d="M2233 128 c6 -19 448 -19 455 0 3 9 -47 12 -228 12 -181 0 -231 -3
-227 -12z"/>
</g>
</svg>
