<?xml version="1.0" standalone="no"?>
<!DOCTYPE svg PUBLIC "-//W3C//DTD SVG 20010904//EN"
 "http://www.w3.org/TR/2001/REC-SVG-20010904/DTD/svg10.dtd">
<svg version="1.0" xmlns="http://www.w3.org/2000/svg"
 width="297.000000pt" height="117.000000pt" viewBox="0 0 297.000000 117.000000"
 preserveAspectRatio="xMidYMid meet">

<g transform="translate(0.000000,117.000000) scale(0.100000,-0.100000)"
fill="#000000" stroke="none">
<path d="M2641 1116 c-48 -27 -66 -104 -36 -156 24 -43 19 -56 -29 -70 -25 -7
-54 -23 -67 -36 -19 -20 -21 -29 -14 -81 14 -117 25 -154 51 -163 24 -9 24
-10 24 -165 l0 -156 -33 -14 c-44 -18 -59 -37 -60 -77 l-2 -33 180 -3 c185 -3
225 1 225 19 0 28 -34 78 -61 89 -30 13 -31 14 -31 55 0 236 3 285 16 285 25
0 36 27 52 121 14 88 14 95 -4 118 -10 14 -38 31 -63 39 -24 8 -47 20 -51 25
-3 6 3 28 14 49 47 89 -32 199 -111 154z m74 -41 c15 -14 25 -36 25 -53 0 -36
-34 -82 -61 -82 -55 0 -80 92 -37 137 27 29 43 29 73 -2z m-5 -179 c0 -8 23
-21 55 -31 30 -10 60 -23 65 -30 10 -12 4 -79 -16 -172 -9 -48 -45 -20 -65 49
-7 25 -5 31 11 35 11 3 20 9 20 13 0 12 -22 18 -42 12 -25 -6 -24 -67 2 -117
18 -35 20 -59 20 -212 0 -169 0 -173 23 -184 33 -17 67 -51 61 -60 -6 -10
-344 -13 -344 -3 0 20 25 44 60 58 l40 16 0 173 c0 153 2 177 20 212 11 22 20
56 20 77 0 36 -2 38 -30 38 -34 0 -40 -15 -11 -23 18 -4 19 -9 10 -43 -13 -46
-32 -69 -52 -61 -20 7 -44 171 -28 191 6 7 35 21 66 31 30 11 55 25 55 32 0 8
12 13 30 13 19 0 30 -5 30 -14z"/>
<path d="M133 1029 c14 -8 17 -25 17 -109 0 -84 -3 -101 -17 -109 -14 -8 -8
-10 27 -10 37 0 41 2 23 9 -21 9 -23 15 -23 97 0 48 4 83 8 78 5 -6 26 -50 47
-99 l39 -88 47 98 47 99 1 -87 c1 -73 -2 -89 -16 -97 -14 -8 -7 -10 32 -10 39
0 46 2 33 10 -15 8 -18 25 -18 109 0 84 3 101 18 109 14 9 11 10 -15 11 -32 0
-35 -4 -77 -92 -41 -87 -44 -91 -54 -68 -5 14 -24 55 -41 93 -28 63 -32 67
-63 67 -27 -1 -30 -2 -15 -11z"/>
<path d="M433 949 c13 -8 17 -23 17 -67 0 -78 29 -104 72 -65 17 15 18 15 18
0 0 -21 10 -21 36 -2 11 8 14 15 7 15 -9 0 -13 20 -13 65 0 64 0 65 -27 64
-16 0 -22 -3 -15 -6 18 -7 16 -107 -3 -123 -30 -25 -45 -4 -45 65 l0 65 -32 0
c-27 -1 -30 -2 -15 -11z"/>
<path d="M632 948 c-23 -23 -13 -54 26 -79 20 -13 37 -31 37 -39 0 -22 -34
-24 -56 -4 -17 15 -19 15 -19 1 0 -9 12 -18 29 -22 76 -16 97 53 28 89 -23 12
-37 26 -35 35 4 22 33 25 52 6 15 -15 16 -15 16 2 0 13 -9 19 -33 20 -18 2
-39 -3 -45 -9z"/>
<path d="M779 941 c-33 -27 -33 -95 0 -122 13 -10 31 -19 40 -19 21 0 61 28
61 43 0 8 -3 8 -12 -1 -28 -28 -88 0 -88 41 0 14 10 17 50 17 43 0 50 3 50 20
0 39 -62 52 -101 21z m59 -3 c20 -20 14 -28 -23 -28 -19 0 -35 4 -35 8 0 12
22 32 35 32 6 0 16 -5 23 -12z"/>
<path d="M903 949 c13 -8 17 -23 17 -67 0 -78 29 -104 72 -65 17 15 18 15 18
0 0 -21 10 -21 36 -2 11 8 14 15 7 15 -9 0 -13 20 -13 65 0 64 0 65 -27 64
-16 0 -22 -3 -15 -6 18 -7 16 -107 -3 -123 -30 -25 -45 -4 -45 65 l0 65 -32 0
c-27 -1 -30 -2 -15 -11z"/>
<path d="M1090 945 c-19 -11 -21 -14 -7 -15 14 0 17 -9 17 -53 0 -29 -5 -58
-12 -65 -9 -9 -3 -12 28 -11 21 0 33 3 27 6 -9 3 -13 29 -13 79 0 41 -3 74 -7
74 -5 -1 -19 -7 -33 -15z"/>
<path d="M1151 947 c-8 -11 -6 -13 12 -13 20 1 22 -4 25 -58 2 -41 -1 -62 -10
-67 -8 -6 4 -9 31 -9 39 0 43 2 27 13 -13 10 -17 24 -14 61 3 52 22 74 52 63
24 -9 23 -112 -1 -126 -14 -8 -8 -10 27 -10 25 0 39 3 33 6 -8 3 -13 25 -13
59 0 88 -26 114 -77 79 -18 -13 -22 -13 -33 0 -15 19 -44 19 -59 2z"/>
<path d="M644 715 c-11 -8 -14 -15 -6 -15 9 0 12 -25 12 -89 0 -62 -4 -91 -12
-94 -7 -3 5 -5 27 -5 22 0 34 2 28 5 -9 3 -13 35 -13 109 0 57 -4 104 -8 104
-5 0 -17 -7 -28 -15z"/>
<path d="M814 715 c-11 -8 -14 -15 -6 -15 7 0 12 -13 12 -29 0 -25 -3 -28 -24
-24 -32 6 -76 -36 -76 -72 0 -45 65 -87 86 -54 5 8 9 8 14 -1 6 -9 13 -9 31 1
15 7 19 14 11 17 -8 2 -12 31 -12 98 0 52 -4 94 -8 94 -5 0 -17 -7 -28 -15z
m-6 -87 c17 -17 15 -87 -2 -94 -8 -3 -24 -1 -35 6 -36 18 -24 100 14 100 6 0
16 -5 23 -12z"/>
<path d="M890 718 c-22 -8 -23 -10 -7 -19 14 -8 17 -24 17 -87 0 -47 -5 -83
-12 -90 -9 -9 -4 -12 22 -12 26 0 31 3 22 12 -17 17 -15 83 3 98 8 7 22 10 30
6 19 -7 21 -102 3 -109 -7 -3 5 -5 27 -5 22 0 34 2 28 5 -8 3 -13 23 -13 49 0
25 -5 54 -10 65 -13 23 -43 25 -61 2 -12 -14 -15 -10 -19 39 -5 54 -6 55 -30
46z"/>
<path d="M1610 717 c-20 -8 -22 -11 -7 -14 14 -4 17 -17 17 -88 0 -69 -3 -86
-17 -94 -15 -8 -10 -10 22 -11 30 0 36 3 27 12 -7 7 -12 23 -12 38 l1 25 24
-28 c14 -16 23 -33 20 -38 -4 -5 9 -9 28 -9 l35 0 -41 41 -42 41 28 24 c16 13
39 24 53 24 21 0 24 -5 25 -37 2 -84 29 -114 70 -77 17 16 19 16 19 1 0 -21
10 -21 36 -2 11 8 14 15 7 15 -9 0 -13 18 -13 55 0 54 -1 55 -27 54 -16 0 -22
-3 -15 -6 17 -7 16 -88 -3 -103 -29 -24 -45 -4 -45 55 l0 55 -61 0 c-33 0 -58
-4 -55 -9 3 -4 -6 -18 -19 -31 l-24 -23 -3 70 -3 70 -25 -10z"/>
<path d="M144 704 c22 -22 22 -156 0 -178 -14 -15 -9 -16 54 -16 55 0 75 4 96
21 31 25 33 42 5 68 -13 12 -17 21 -10 26 6 3 11 19 11 35 0 42 -32 60 -108
60 -58 0 -62 -1 -48 -16z m107 -4 c21 -12 25 -50 7 -68 -7 -7 -25 -12 -40 -12
-27 0 -28 2 -28 45 0 39 3 45 21 45 11 0 29 -5 40 -10z m13 -106 c35 -34 9
-74 -48 -74 -24 0 -26 3 -26 45 0 43 1 45 29 45 16 0 37 -7 45 -16z"/>
<path d="M2213 663 c-16 -17 -18 -23 -8 -23 12 0 15 -14 15 -60 0 -66 17 -87
47 -57 14 14 14 15 -3 14 -16 -2 -19 6 -22 50 -2 43 0 52 15 56 16 4 16 5 1 6
-9 0 -18 9 -20 19 -3 15 -5 15 -25 -5z"/>
<path d="M377 637 c-10 -6 -20 -28 -23 -48 -5 -29 -2 -41 15 -58 26 -26 62
-27 84 -3 21 23 22 39 3 22 -22 -18 -59 -8 -73 20 -12 25 -12 25 37 28 35 2
50 7 50 17 0 30 -62 45 -93 22z m61 -14 c2 -9 -7 -13 -27 -13 -30 0 -39 9 -24
24 11 10 46 3 51 -11z"/>
<path d="M517 637 c-10 -6 -20 -28 -23 -48 -5 -29 -2 -41 15 -58 26 -26 62
-27 84 -3 21 23 22 39 3 22 -22 -18 -59 -8 -73 20 -12 25 -12 25 37 28 35 2
50 7 50 17 0 30 -62 45 -93 22z m61 -14 c2 -9 -7 -13 -27 -13 -30 0 -39 9 -24
24 11 10 46 3 51 -11z"/>
<path d="M1065 625 c-31 -30 -32 -65 -2 -93 30 -29 62 -28 92 3 33 32 32 68
-1 94 -35 27 -59 26 -89 -4z m70 -9 c20 -31 16 -75 -8 -90 -37 -22 -78 69 -45
102 18 18 36 14 53 -12z"/>
<path d="M1198 643 c6 -2 12 -21 13 -41 2 -83 30 -113 70 -76 17 16 19 16 19
1 0 -21 10 -21 36 -2 11 8 14 15 7 15 -9 0 -13 18 -13 55 0 54 -1 55 -27 54
-16 0 -22 -3 -15 -6 17 -7 16 -88 -3 -103 -29 -24 -45 -4 -45 55 0 54 -1 55
-27 54 -16 0 -22 -3 -15 -6z"/>
<path d="M1373 635 c9 -8 21 -32 28 -52 25 -79 29 -82 55 -32 l23 44 17 -42
c9 -24 20 -43 24 -43 3 0 14 25 24 55 9 30 24 61 32 70 14 13 13 15 -13 15
-18 0 -24 -3 -15 -8 10 -7 9 -18 -6 -52 l-18 -44 -18 44 c-14 35 -15 45 -4 51
8 6 -2 9 -27 9 -32 -1 -36 -3 -22 -11 20 -12 21 -35 3 -69 l-14 -24 -16 39
c-9 21 -14 45 -12 52 4 9 -4 13 -25 13 -27 0 -29 -2 -16 -15z"/>
<path d="M1930 638 c-22 -8 -23 -10 -7 -19 19 -11 23 -59 7 -90 -10 -17 -7
-19 22 -19 25 0 29 3 20 12 -17 17 -15 83 3 98 8 7 22 10 30 6 19 -7 21 -102
3 -109 -7 -3 5 -5 27 -5 22 0 34 2 28 5 -8 3 -13 23 -13 49 0 73 -33 107 -68
72 -9 -9 -15 -10 -20 -2 -5 8 -15 8 -32 2z"/>
<path d="M2103 643 c-27 -10 -14 -53 22 -75 36 -21 41 -40 13 -46 -9 -2 -23 4
-32 13 -14 15 -16 15 -16 1 0 -9 12 -19 27 -22 59 -15 83 49 28 75 -33 15 -46
31 -39 43 9 14 43 8 53 -9 9 -16 10 -16 11 -2 0 24 -35 35 -67 22z"/>
<path d="M213 425 c-45 -19 -73 -69 -73 -128 0 -42 5 -54 33 -82 39 -39 89
-52 150 -39 l42 9 5 58 c3 36 11 62 20 67 10 7 -2 9 -40 9 -30 0 -48 -3 -40
-6 23 -9 30 -24 30 -68 0 -49 -14 -65 -55 -65 -61 0 -105 56 -105 132 0 51 30
105 62 112 13 3 32 7 43 9 13 3 9 5 -10 5 -16 1 -45 -5 -62 -13z"/>
<path d="M318 422 c8 -2 22 -18 33 -36 l19 -31 0 35 c0 33 -2 35 -33 36 -17 1
-26 -1 -19 -4z"/>
<path d="M822 368 c-13 -15 -19 -28 -13 -28 7 0 11 -28 11 -73 0 -43 5 -78 12
-85 17 -17 43 -15 58 3 11 13 10 14 -5 9 -25 -10 -35 13 -35 83 0 60 1 62 28
66 l27 4 -27 2 c-20 1 -27 7 -30 24 l-3 24 -23 -29z"/>
<path d="M454 327 c-21 -19 -27 -32 -27 -67 0 -35 6 -48 27 -67 40 -34 95 -27
110 14 6 14 5 16 -5 6 -32 -32 -88 -7 -103 45 -7 21 -5 22 53 22 54 0 61 2 61
19 0 24 -36 51 -67 51 -12 0 -34 -10 -49 -23z m62 5 c6 -4 13 -15 17 -24 5
-16 0 -18 -39 -18 -33 0 -43 3 -38 13 21 37 37 45 60 29z"/>
<path d="M615 335 c-19 -9 -24 -14 -12 -14 14 -1 17 -11 17 -70 0 -46 -4 -71
-12 -74 -7 -3 6 -6 30 -6 40 -1 42 0 28 15 -23 23 -21 106 2 127 23 21 48 22
56 1 3 -9 6 -40 6 -69 0 -41 -4 -56 -17 -64 -14 -8 -7 -10 32 -10 39 0 46 2
33 10 -14 8 -18 23 -18 70 0 33 -5 69 -10 80 -13 23 -47 24 -75 3 -17 -12 -20
-13 -25 0 -4 12 -10 12 -35 1z"/>
<path d="M2477 124 c-20 -20 10 -24 199 -24 160 0 205 3 202 13 -4 9 -54 13
-199 15 -108 1 -198 -1 -202 -4z"/>
<path d="M2412 49 c3 -8 273 -13 531 -9 4 0 7 5 7 10 0 6 -97 10 -271 10 -187
0 -270 -3 -267 -11z"/>
</g>
</svg>
